<?xml version="1.0" standalone="no"?><!DOCTYPE svg PUBLIC "-//W3C//DTD SVG 1.1//EN" "http://www.w3.org/Graphics/SVG/1.1/DTD/svg11.dtd"><svg t="1756037283146" class="icon" viewBox="0 0 1024 1024" version="1.1" xmlns="http://www.w3.org/2000/svg" p-id="14304" xmlns:xlink="http://www.w3.org/1999/xlink" width="200" height="200"><path d="M570.7 921.1c-13.5 0-27.4-2.5-40.8-7.5-29.2-10.9-52.2-32.4-63-58.8-18.3-44.5-5-94 6.7-137.7 10.9-40.5 20.8-86.9 1.1-123.3-2.9-5.4-5.8-8.6-8.5-9.3-4.9-1.4-11.5 4.2-15.6 9.5-18.8 23.8-23.6 56.9-26.6 86-5.2 49.7-6.4 111.8 30.1 151.3 3.1 3.3 3.5 8.3 1.1 12.2s-7.2 5.5-11.5 4.1c-24.1-7.8-46.5-21.9-64.7-40.8-18.2-18.9-31.5-41.8-38.3-66.2-12-42.8-5.1-88 4.4-128.2-4.4 3.2-8.8 6.2-13.2 9.2-18.7 12.8-36.4 24.8-43.7 43.5-10.6 27.2 4.9 58.7 19.6 83.1l2.6 4.3c16.5 27.2 35.1 58.1 31.1 92.2-3.1 26.3-20.7 50.4-44.7 61.4-3.8 1.7-8.2 0.9-11.2-2s-3.8-7.3-2.2-11.1c9.8-22.4 19.4-48 9.9-67.9-3.8-8-10.6-14.8-17.8-22-27.3-27.4-51.1-52.7-65.3-85.3-13.4-30.7-15.8-66.7-6.8-101.2 7.9-30.2 23.9-57 45.7-76.7-16.5-15.9-26.2-40.4-25.9-66.9 0.3-28.4 11.1-55.2 21.5-77.8l0.4-0.9c6.9-15 14.1-30.4 10.4-44-3.7-13.7-20.5-23.3-35.2-20.1-14.7 3.2-26.9 17.7-28.3 33.8-0.4 4.9-4.4 8.8-9.3 9.1-4.9 0.3-9.3-3-10.4-7.8-7.8-34.7 5.4-72 32.1-90.5 22.9-15.9 51-15.2 77.1 1.8 22.7 14.9 37.5 41.8 38.7 70.3 0.6 13.9-1.9 27.2-4.3 40.1-1.8 9.7-3.5 18.9-4 28.2-0.9 18.9 6.6 40.6 22.8 45.4 16.7 5 34.5-9.3 43.7-18.3 4.3-4.3 8.9-9.3 10-14.5 0.9-4.1-0.2-9.1-1.5-14.2-4.8-19.6-11.5-39.3-18-58.3-7.3-21.3-14.8-43.3-19.9-65.8-8.4-37-12.5-90.2 15.4-133 15.6-24 40.4-42.5 71.5-53.4 27-9.4 58-13.1 89.8-10.7 47.1 3.6 83.4 18 107.9 43 25.1 25.6 38.5 63.6 37.6 106.8-0.8 37.8-11.8 74.3-23.1 108.5-10.1 30.7-17.2 61.8-0.3 80.8 6.6 7.4 16.5 11.4 28 11.4h0.1c15.3 0 30.9-7 40.8-18.1 20.3-22.9 22.1-57.4 20.2-82.3-0.2-2.4-0.4-4.8-0.6-7.3-2.3-26.3-4.9-56.2 15.3-76.6 23.2-23.4 63.3-16.7 86.3 4.1 3.3 3 4.2 7.8 2.3 11.8-1.9 4-6.3 6.2-10.7 5.5-5.6-1-11 0.9-16 5.4-8.2 7.5-13.4 20.9-12.5 32.6 1 13.7 6.5 26.7 12.2 40.6 3.5 8.4 7.1 17.2 9.8 26.3 8.2 27.9 6.3 59-5.4 87.6-9.4 23.1-24.4 42.9-43.2 57.1 31.8 19.7 55.3 44.5 68.3 72.4 18.3 39.4 14 85.8-10.7 115.5-10.7 12.8-24.2 22-37.4 30.9l-5.4 3.6c-38.1 26.1-72.8 57-103.1 91.9-3.1 3.6-8.3 4.5-12.4 2.2s-6.1-7.2-4.7-11.7c11.2-36.1 31.1-69.3 57.6-96.2 2.4-2.4 4.9-4.9 7.3-7.2 15.1-14.9 30.7-30.2 30.9-48.4 0.2-16-11.6-32.1-36.1-49.4-37.4-26.4-78.2-47.1-121.5-61.5 3.1 54.1-7.2 108.3-30.2 157.5-2.5 5.4-5.2 10.8-7.8 16.1-14.6 29.7-29.7 60.4-20.6 88.8 8.9 27.5 38.2 44.4 67.5 59.3 3.4 1.7 5.5 5.2 5.5 8.9s-2.2 7.2-5.5 8.9c-13.8 6.4-29.4 9.9-45.4 9.9z m-106.2-357c2.4 0 4.8 0.3 7.1 1 8.2 2.3 15 8.6 20.6 19.1 23.2 42.9 12.5 93.8 0.6 138-11.4 42.6-23.3 86.7-7.6 124.9 8.8 21.3 27.6 38.7 51.6 47.7 16.5 6.2 33.7 7.8 49.6 4.8-25.4-14.6-48-32.4-56.9-60-11.6-36.1 6.1-72 21.7-103.7 2.7-5.4 5.2-10.6 7.6-15.7 23.6-50.5 33-106.6 27.3-162-0.3-3.3 1-6.6 3.6-8.7s6-2.8 9.2-1.9c50.6 15.2 98.2 38.3 141.3 68.8 11.1 7.9 45 31.8 44.6 66-0.3 26.5-19.8 45.6-36.9 62.5-2.5 2.4-4.8 4.7-7.1 7-10.7 10.9-20.2 22.9-28.4 35.8 20.5-19.1 42.4-36.6 65.5-52.5 1.8-1.2 3.6-2.5 5.5-3.7 12.5-8.5 24.3-16.5 33.2-27.1 19.9-23.8 23.1-61.7 8-94.3-16.5-35.4-49.3-58.4-73.9-71.4-3.2-1.7-5.3-5.1-5.3-8.7 0-3.7 1.9-7.1 5.1-8.8 44.2-24.8 67.7-82.3 53.3-131-2.4-8.1-5.6-15.9-9.1-24.2-6.1-14.7-12.4-29.9-13.7-46.8-1.3-18 6.1-37.2 19-48.9 1.7-1.5 3.5-2.9 5.3-4.2-14-4.7-29.6-3.7-39.4 6.2-13.7 13.8-11.6 37.7-9.6 60.8l0.6 7.5c3.3 41.2-5.4 74.8-25.1 97.1-13.5 15.3-34.9 24.8-55.7 24.8h-0.1c-17.3 0-32.5-6.4-43-18.1-26.9-30.2-11.3-77.6-3.8-100.3 10.8-32.7 21.4-67.6 22.1-102.6 0.8-37.3-10.8-71-31.9-92.4-21-21.4-53-33.9-95.1-37.1-49.4-3.7-112.9 8.8-143.1 55.1-24.1 37-20.2 84.5-12.7 117.7 4.9 21.5 12.2 43 19.3 63.8 6.6 19.4 13.5 39.5 18.5 60 1.8 7.2 3.3 14.9 1.6 23-2.2 10.4-9.1 18.4-15.6 24.7-21.2 20.8-43.7 29.1-63.4 23.2-27.2-8.1-38.3-39.6-37.1-65.5 0.5-10.6 2.4-20.9 4.3-30.9 2.3-12.4 4.5-24 4-35.6-0.9-22.1-12.3-43-29.7-54.3-19.2-12.6-38.7-13.3-54.8-2.1-10.2 7.1-17.7 17.8-21.9 30.2 6.5-5.3 14.1-9.1 22.2-10.8 25.3-5.4 52.2 10.3 58.7 34.5 5.6 20.6-3.6 40.3-11.6 57.7l-0.4 0.9c-9.5 20.6-19.3 45-19.6 69.6-0.3 24.9 10.1 47.2 27.1 58.1 2.8 1.8 4.5 4.8 4.6 8 0.1 3.3-1.4 6.4-4 8.4-47.8 36.1-66.4 107.3-42.5 162.1 12.8 29.3 35.3 53.2 61.1 79.1 8.1 8.1 16.4 16.4 21.7 27.6 7.1 14.9 7.1 30.6 3.7 46.1 3.4-6.3 5.6-13.2 6.5-20.2 3.2-27.3-12.8-53.8-28.3-79.5l-2.6-4.3c-17.1-28.3-34.9-65.4-21.1-100.7 9.5-24.5 30.6-38.9 51.1-52.8 12.9-8.8 25.2-17.2 34.5-27.8 3.1-3.5 8.1-4.4 12.2-2.2s6.2 6.9 5 11.4c-12.1 46.4-26 99.5-12.2 148.5 8.9 31.7 30.5 60 58.2 78.2-20-41.9-18.4-92.9-14-135.4 3.3-31.9 8.7-68.3 30.8-96.3 9-11.3 19.5-17.4 29.7-17.4z" fill="#007aff" p-id="14305"></path><path d="M753.946898 506.142611a8.6 14.6 50.963 1 0-10.832941-13.359917 8.6 14.6 50.963 1 0 10.832941 13.359917Z" fill="#007aff" p-id="14306"></path><path d="M742.5 511.2c-2.4 0-4.5-0.8-5.7-2.3-3.2-3.9-0.5-11.3 6-16.6 6.5-5.2 14.3-6.3 17.4-2.4 3.2 3.9 0.5 11.3-6 16.6-3.8 3.1-8.1 4.7-11.7 4.7z m0.9-18.1c-6 4.9-8.6 11.7-5.8 15.2s10 2.3 16-2.6 8.6-11.7 5.8-15.2c-2.8-3.4-10-2.3-16 2.6z" fill="#007aff" p-id="14307"></path><path d="M780.325939 475.686706a8.6 11.1 35.904 1 0-13.932012-10.086577 8.6 11.1 35.904 1 0 13.932012 10.086577Z" fill="#007aff" p-id="14308"></path><path d="M771.1 481.4c-1.7 0-3.2-0.5-4.5-1.4-2-1.4-3.1-3.8-3.2-6.6-0.1-2.8 0.8-5.6 2.6-8.1s4.3-4.3 6.9-5.1c2.7-0.8 5.3-0.4 7.3 1 4.1 2.9 4.3 9.5 0.6 14.7-1.8 2.5-4.3 4.3-6.9 5.1-1 0.3-2 0.4-2.8 0.4z m4.5-20.6c-0.8 0-1.6 0.1-2.5 0.4-2.4 0.7-4.7 2.4-6.4 4.7-1.7 2.3-2.5 5-2.5 7.5 0.1 2.5 1.1 4.6 2.8 5.8 1.7 1.3 4 1.6 6.4 0.9 2.4-0.7 4.7-2.4 6.4-4.7 3.4-4.7 3.3-10.7-0.4-13.3-1-0.9-2.4-1.3-3.8-1.3z" fill="#007aff" p-id="14309"></path><path d="M566.49884 665.283926a8.6 11.1 35.904 1 0-13.932012-10.086577 8.6 11.1 35.904 1 0 13.932012 10.086577Z" fill="#007aff" p-id="14310"></path><path d="M557.2 671c-1.6 0-3.2-0.5-4.5-1.4-4.1-2.9-4.3-9.5-0.6-14.7 1.8-2.5 4.3-4.3 6.9-5.1 2.7-0.8 5.3-0.4 7.3 1 4.1 2.9 4.3 9.5 0.6 14.7-2.5 3.5-6.3 5.5-9.7 5.5z m-4.3-15.5c-3.4 4.7-3.3 10.7 0.4 13.3 3.6 2.6 9.3 0.9 12.8-3.8s3.3-10.7-0.4-13.3c-1.7-1.3-4-1.6-6.4-0.9-2.4 0.7-4.7 2.4-6.4 4.7z" fill="#007aff" p-id="14311"></path><path d="M792.288386 440.639793a6.9 8.9 6.355 1 0-13.715201-1.5275 6.9 8.9 6.355 1 0 13.715201 1.5275Z" fill="#007aff" p-id="14312"></path><path d="M785.2 449.3h-0.7c-2-0.2-3.7-1.4-4.9-3.4-1.2-1.9-1.7-4.3-1.4-6.8 0.3-2.5 1.3-4.7 2.8-6.3 1.6-1.6 3.6-2.4 5.5-2.2 4 0.5 6.9 5 6.3 10.1-0.3 2.5-1.3 4.7-2.8 6.3-1.3 1.6-3 2.3-4.8 2.3z m0.8-17.7c-1.5 0-3 0.7-4.2 1.9-1.4 1.4-2.3 3.5-2.6 5.7-0.3 2.2 0.2 4.4 1.2 6.1 1 1.7 2.5 2.7 4.2 2.9 1.7 0.2 3.3-0.5 4.7-1.9 1.4-1.4 2.3-3.5 2.6-5.7 0.5-4.6-1.9-8.6-5.4-9h-0.5z" fill="#007aff" p-id="14313"></path><path d="M556.681568 696.177113a6.9 8.9 6.355 1 0-13.715201-1.5275 6.9 8.9 6.355 1 0 13.715201 1.5275Z" fill="#007aff" p-id="14314"></path><path d="M549.6 704.9h-0.7c-2-0.2-3.7-1.4-4.9-3.4-1.2-1.9-1.7-4.3-1.4-6.8 0.6-5.1 4.3-8.9 8.4-8.5 4.1 0.5 6.9 5 6.3 10.1-0.3 2.5-1.3 4.7-2.8 6.3-1.4 1.5-3.1 2.3-4.9 2.3z m0.8-17.7c-3.3 0-6.3 3.3-6.7 7.6-0.3 2.2 0.2 4.4 1.2 6.1 1 1.7 2.5 2.7 4.2 2.9 1.7 0.2 3.3-0.5 4.7-1.9 1.4-1.4 2.3-3.5 2.6-5.7 0.5-4.6-1.9-8.6-5.4-9h-0.6z" fill="#007aff" p-id="14315"></path><path d="M796.344071 415.028556a5.5 7 6.355 1 0-10.932407-1.217572 5.5 7 6.355 1 0 10.932407 1.217572Z" fill="#007aff" p-id="14316"></path><path d="M790.8 422h-0.5c-3.3-0.4-5.5-4-5.1-8.1 0.5-4.1 3.5-7.2 6.7-6.8 1.6 0.2 3 1.1 4 2.7 0.9 1.5 1.3 3.5 1.1 5.4-0.4 3.9-3.2 6.8-6.2 6.8z m-4.6-8c-0.4 3.6 1.5 6.7 4.2 7 2.7 0.3 5.2-2.4 5.6-5.9 0.2-1.8-0.1-3.5-1-4.8-0.8-1.3-1.9-2.1-3.2-2.2-2.7-0.4-5.2 2.3-5.6 5.9z" fill="#007aff" p-id="14317"></path><path d="M548.35371 728.647454a5.5 7 6.355 1 0-10.932407-1.217572 5.5 7 6.355 1 0 10.932407 1.217572Z" fill="#007aff" p-id="14318"></path><path d="M542.8 735.7h-0.5c-3.3-0.4-5.5-4-5.1-8.1 0.5-4.1 3.5-7.2 6.7-6.8 3.3 0.4 5.5 4 5.1 8.1-0.5 3.9-3.2 6.8-6.2 6.8z m-4.7-8.1c-0.4 3.6 1.5 6.7 4.2 7 2.7 0.3 5.2-2.4 5.6-5.9 0.4-3.6-1.5-6.7-4.2-7-2.6-0.3-5.2 2.4-5.6 5.9z" fill="#007aff" p-id="14319"></path><path d="M374.058644 620.77405a8.6 12 14.396 1 0 16.659929 4.276303 8.6 12 14.396 1 0-16.659929-4.276303Z" fill="#007aff" p-id="14320"></path><path d="M381 635.3c-0.6 0-1.1-0.1-1.7-0.2-4.9-1.2-7.4-7.7-5.7-14.4 1.7-6.7 7.1-11.1 11.9-9.9 4.9 1.2 7.4 7.7 5.7 14.4-1.5 5.9-5.8 10.1-10.2 10.1z m2.9-23.7c-3.9 0-7.9 3.9-9.3 9.3-1.6 6.2 0.7 12.1 5 13.2 4.3 1.1 9.1-3 10.7-9.2 1.6-6.2-0.7-12.1-5-13.2-0.5-0.1-0.9-0.1-1.4-0.1z" fill="#007aff" p-id="14321"></path><path d="M556.358924 619.097828a8.6 12 14.396 1 0 16.659929 4.276303 8.6 12 14.396 1 0-16.659929-4.276303Z" fill="#007aff" p-id="14322"></path><path d="M563.2 633.6c-0.6 0-1.1-0.1-1.7-0.2-4.9-1.2-7.4-7.7-5.7-14.4 0.8-3.2 2.5-6 4.7-7.9 2.3-1.9 4.8-2.6 7.2-2 4.9 1.2 7.4 7.7 5.7 14.4-1.4 5.9-5.8 10.1-10.2 10.1z m2.9-23.7c-1.6 0-3.3 0.7-4.9 2-2.1 1.7-3.6 4.3-4.4 7.4-1.6 6.2 0.7 12.1 5 13.2 4.3 1.1 9.1-3 10.7-9.2 1.6-6.2-0.7-12.1-5-13.2-0.4-0.2-0.9-0.2-1.4-0.2z" fill="#007aff" p-id="14323"></path><path d="M364.592397 655.920594a6.8 9.6 14.396 1 0 13.172967 3.381262 6.8 9.6 14.396 1 0-13.172967-3.381262Z" fill="#007aff" p-id="14324"></path><path d="M370.1 667.5c-0.5 0-0.9-0.1-1.3-0.2-3.9-1-6-6.2-4.6-11.6 0.7-2.6 2-4.8 3.8-6.3 1.8-1.5 3.9-2.1 5.8-1.6s3.5 2 4.3 4.2c0.8 2.2 0.9 4.8 0.3 7.3-1.3 4.9-4.8 8.2-8.3 8.2z m2.3-18.8c-1.3 0-2.6 0.5-3.8 1.5-1.6 1.4-2.8 3.4-3.5 5.8-1.2 4.8 0.5 9.5 3.9 10.3 3.4 0.9 7.1-2.4 8.4-7.2 0.6-2.4 0.5-4.8-0.2-6.7-0.7-1.9-2-3.2-3.6-3.6-0.5-0.1-0.8-0.1-1.2-0.1z" fill="#007aff" p-id="14325"></path><path d="M360.402456 685.82075a4.4 6.2 14.396 1 0 8.523685 2.187876 4.4 6.2 14.396 1 0-8.523685-2.187876Z" fill="#007aff" p-id="14326"></path><path d="M364 693.4c-0.3 0-0.6 0-0.9-0.1-1.3-0.3-2.3-1.3-2.9-2.8-0.6-1.4-0.6-3.1-0.2-4.8 0.4-1.7 1.3-3.2 2.5-4.2s2.6-1.4 3.9-1.1c1.3 0.3 2.3 1.3 2.9 2.8 0.6 1.4 0.6 3.1 0.2 4.8-0.4 1.7-1.3 3.2-2.5 4.2-1 0.8-2 1.2-3 1.2z m1.5-12.1c-0.8 0-1.6 0.3-2.3 1-1 0.9-1.8 2.1-2.2 3.6s-0.3 3 0.1 4.2c0.5 1.2 1.2 2 2.2 2.2 1 0.3 2-0.1 3-0.9 1-0.9 1.8-2.1 2.2-3.6s0.3-3-0.1-4.2c-0.5-1.2-1.2-2-2.2-2.2-0.3-0.1-0.5-0.1-0.7-0.1z" fill="#007aff" p-id="14327"></path><path d="M257.9 491.5a6 11.8 0 1 0 12 0 6 11.8 0 1 0-12 0Z" fill="#007aff" p-id="14328"></path><path d="M263.9 503.8c-3.7 0-6.5-5.4-6.5-12.3s2.9-12.3 6.5-12.3c3.7 0 6.5 5.4 6.5 12.3s-2.8 12.3-6.5 12.3z m0-23.6c-3 0-5.5 5.2-5.5 11.3s2.5 11.3 5.5 11.3 5.5-5.2 5.5-11.3-2.5-11.3-5.5-11.3z" fill="#007aff" p-id="14329"></path><path d="M250.974969 459.234446a5.1 10 10.848 1 0 10.017725 1.919682 5.1 10 10.848 1 0-10.017725-1.919682Z" fill="#007aff" p-id="14330"></path><path d="M254.7 470.5c-0.2 0-0.4 0-0.6-0.1-3.1-0.6-4.6-5.6-3.5-11.4s4.4-9.8 7.5-9.3c3.1 0.6 4.6 5.6 3.5 11.4-1.1 5.5-4 9.4-6.9 9.4z m2.7-19.7c-2.4 0-5 3.7-5.9 8.5-1 5.1 0.3 9.7 2.7 10.2 2.4 0.5 5.3-3.4 6.3-8.5s-0.3-9.7-2.7-10.2h-0.4z" fill="#007aff" p-id="14331"></path><path d="M257.269777 431.815118a4.2 6.7 10.848 1 0 8.249892 1.580915 4.2 6.7 10.848 1 0-8.249892-1.580915Z" fill="#007aff" p-id="14332"></path><path d="M260.6 439.8c-0.2 0-0.4 0-0.6-0.1-2.6-0.5-4-4-3.2-7.9 0.4-1.8 1.1-3.5 2.2-4.7 1.1-1.2 2.5-1.8 3.7-1.5 1.3 0.2 2.3 1.2 2.9 2.8 0.6 1.5 0.7 3.3 0.3 5.1-0.4 1.8-1.1 3.5-2.2 4.7-0.9 1-2 1.6-3.1 1.6z m1.6-13.3c-0.8 0-1.6 0.4-2.4 1.3-0.9 1-1.6 2.5-2 4.2-0.6 3.3 0.5 6.4 2.4 6.8 0.9 0.2 1.9-0.3 2.8-1.2 0.9-1 1.6-2.5 2-4.2 0.3-1.7 0.2-3.3-0.3-4.6-0.5-1.2-1.2-2-2.1-2.2-0.2-0.1-0.3-0.1-0.4-0.1z" fill="#007aff" p-id="14333"></path><path d="M266.008795 414.989267a5.3 3.3 83.345 1 0 6.555529-0.764878 5.3 3.3 83.345 1 0-6.555529 0.764878Z" fill="#007aff" p-id="14334"></path><path d="M269.7 420.5c-1 0-1.9-0.5-2.7-1.5-0.8-1-1.3-2.4-1.5-3.9-0.4-3.3 1-6 3.1-6.2 2.1-0.2 4.1 2.1 4.5 5.4 0.2 1.5 0 3-0.6 4.1-0.6 1.2-1.5 2-2.5 2.1h-0.3z m-0.8-10.7h-0.2c-1.5 0.2-2.5 2.5-2.2 5.1 0.2 1.3 0.6 2.5 1.3 3.4 0.6 0.8 1.4 1.2 2.1 1.1 0.7-0.1 1.3-0.6 1.8-1.5 0.5-1 0.6-2.3 0.5-3.6-0.4-2.5-1.8-4.5-3.3-4.5z" fill="#007aff" p-id="14335"></path><path d="M526.987263 133.695758a16.6 10.9 22.013 1 0 30.779681 12.443923 16.6 10.9 22.013 1 0-30.779681-12.443923Z" fill="#007aff" p-id="14336"></path><path d="M546.9 152.2c-2.8 0-5.8-0.6-8.8-1.8-4.2-1.7-7.7-4.4-9.9-7.5-2.2-3.2-2.8-6.6-1.7-9.4 2.4-5.8 11.4-7.7 20.2-4.1 8.8 3.5 14 11.2 11.6 17-1.6 3.7-6 5.8-11.4 5.8z m-9.2-23.7c-4.9 0-8.9 1.9-10.3 5.3-1 2.5-0.5 5.6 1.6 8.5 2.1 3 5.5 5.6 9.5 7.2 8.3 3.3 16.7 1.7 18.9-3.6 2.1-5.3-2.8-12.4-11.1-15.7-3-1.2-5.9-1.7-8.6-1.7z" fill="#007aff" p-id="14337"></path><path d="M570.070594 155.643853a14.6 9.5 33.105 1 0 24.459995 15.948311 14.6 9.5 33.105 1 0-24.459995-15.948311Z" fill="#007aff" p-id="14338"></path><path d="M587.2 175.4c-3.2 0-7-1.1-10.4-3.3-7-4.5-10.2-12-7.1-16.6 1.5-2.3 4.2-3.5 7.7-3.5 3.4 0 7.1 1.2 10.4 3.4 7 4.5 10.2 12 7.1 16.6-1.5 2.2-4.4 3.4-7.7 3.4z m-9.8-22.6c-3.1 0-5.6 1.1-6.9 3.1-2.7 4.2 0.3 11 6.8 15.3 6.5 4.2 14 4.3 16.7 0.1 2.7-4.2-0.3-11-6.8-15.3-3.1-2-6.6-3.2-9.8-3.2z" fill="#007aff" p-id="14339"></path><path d="M604.373591 190.856368a14.6 9.5 75.818 1 0 7.154083 28.310053 14.6 9.5 75.818 1 0-7.154083-28.310053Z" fill="#007aff" p-id="14340"></path><path d="M609.9 219.8c-2.1 0-4.3-1-6.3-2.8-2.5-2.3-4.4-5.7-5.4-9.5-1-3.9-0.9-7.8 0.2-11 1.1-3.3 3.2-5.4 5.8-6.1 5.4-1.4 11.4 4.1 13.4 12.1 2 8.1-0.7 15.7-6 17.1-0.5 0.1-1.1 0.2-1.7 0.2z m-3.9-28.6c-0.5 0-1 0.1-1.5 0.2-2.3 0.6-4.1 2.5-5.1 5.5s-1.1 6.7-0.2 10.4c0.9 3.7 2.7 6.9 5.1 9.1 2.3 2.1 4.8 2.9 7.1 2.4 4.8-1.2 7.2-8.3 5.3-15.8-1.7-7-6.3-11.8-10.7-11.8z" fill="#007aff" p-id="14341"></path><path d="M555.529966 187.473477a13.1 8.6 33.105 1 0 21.946981 14.309787 13.1 8.6 33.105 1 0-21.946981-14.309787Z" fill="#007aff" p-id="14342"></path><path d="M570.9 205.3c-3 0-6.4-1.1-9.4-3-6.3-4.1-9.2-10.9-6.4-15 2.7-4.2 10.1-4.3 16.4-0.2 3 2 5.3 4.6 6.6 7.4 1.3 2.9 1.2 5.6-0.1 7.7-1.5 1.9-3.9 3.1-7.1 3.1zM562 185c-2.7 0-4.9 0.9-6.1 2.8-2.4 3.7 0.3 9.9 6.1 13.7 2.8 1.9 6 2.9 8.8 2.9 2.8 0 5-1 6.1-2.8 1.2-1.8 1.2-4.2 0.1-6.7-1.1-2.6-3.4-5.1-6.2-7-2.8-2-6-2.9-8.8-2.9z" fill="#007aff" p-id="14343"></path><path d="M461.5 262.5m-21.9 0a21.9 21.9 0 1 0 43.8 0 21.9 21.9 0 1 0-43.8 0Z" fill="#007aff" p-id="14344"></path><path d="M559.8 262.5m-21.9 0a21.9 21.9 0 1 0 43.8 0 21.9 21.9 0 1 0-43.8 0Z" fill="#007aff" p-id="14345"></path></svg>